<svg id="Layer_1" data-name="Layer 1" xmlns="http://www.w3.org/2000/svg" viewBox="0 0 97.64 27.1"><defs><style>.cls-1{fill:#fff;}.cls-2{fill:#1c75bc;}</style></defs><path class="cls-1" d="M15.42,1.85v.68l-5.56,9,5.56,6.39v.69h-3l-5-5.78H4v5.78H1.23V1.85H4v7H7.42c1.64-1.89,3.42-5.09,5-7Z" transform="translate(-1.23 -1.85)"/><path class="cls-1" d="M26.83,5.79V8.36H20.24a.14.14,0,0,0-.14.14V18.58H17.42V8.5a2.78,2.78,0,0,1,2.82-2.71Z" transform="translate(-1.23 -1.85)"/><path class="cls-1" d="M40.77,8.5V18.58H31.55a2.77,2.77,0,0,1-2.82-2.71V11.58h9.36V8.5A.14.14,0,0,0,38,8.36H28.73V5.79H38A2.78,2.78,0,0,1,40.77,8.5Zm-2.68,5.68H31.41v1.69a.14.14,0,0,0,.14.14h6.54Z" transform="translate(-1.23 -1.85)"/><path class="cls-1" d="M51.63,23.11H44.37v-2.6h7.26a.12.12,0,0,0,.12-.12V18.58H45.21a2.78,2.78,0,0,1-2.83-2.71V8.5a2.78,2.78,0,0,1,2.83-2.71h6.42a2.76,2.76,0,0,1,2.8,2.71V20.39A2.76,2.76,0,0,1,51.63,23.11Zm0-7.1a.13.13,0,0,0,.12-.14V8.5a.13.13,0,0,0-.12-.14H45.21a.14.14,0,0,0-.15.14v7.37a.14.14,0,0,0,.15.14Z" transform="translate(-1.23 -1.85)"/><path class="cls-1" d="M68.1,9H65.43V8.5a.15.15,0,0,0-.15-.14h-6.4a.14.14,0,0,0-.14.14v3c0,.08.06.12.14.12h6.4A2.76,2.76,0,0,1,68.1,14.3v1.57a2.76,2.76,0,0,1-2.82,2.71h-6.4a2.78,2.78,0,0,1-2.82-2.71v-.49h2.68v.49a.14.14,0,0,0,.14.14h6.4a.15.15,0,0,0,.15-.14V14.3c0-.08-.07-.12-.15-.12h-6.4a2.78,2.78,0,0,1-2.82-2.72v-3a2.78,2.78,0,0,1,2.82-2.71h6.4A2.76,2.76,0,0,1,68.1,8.5Z" transform="translate(-1.23 -1.85)"/><path class="cls-1" d="M82,8.5v5.68H72.6v1.69a.14.14,0,0,0,.14.14H82v2.57H72.74a2.78,2.78,0,0,1-2.82-2.71V8.5a2.78,2.78,0,0,1,2.82-2.71h6.4A2.78,2.78,0,0,1,82,8.5Zm-2.68,3.08V8.5a.14.14,0,0,0-.15-.14h-6.4a.14.14,0,0,0-.14.14v3.08Z" transform="translate(-1.23 -1.85)"/><path class="cls-2" d="M77.72,8.87l-.5,2.2H74.73l-.45-2.2ZM74.28,19.43h3.44V29H74.28Z" transform="translate(-1.23 -1.85)"/><path class="cls-2" d="M98.87,2.19l-3,2.52H90.12V29H84.68V4.71H78.92l-3-2.52Z" transform="translate(-1.23 -1.85)"/></svg>