<svg id="Layer_1" data-name="Layer 1" xmlns="http://www.w3.org/2000/svg" viewBox="0 0 1248.24 709.66"><rect x="0.5" y="0.5" width="1247.24" height="708.66" fill="#333" stroke="#1d1d1b" stroke-miterlimit="10" stroke-width="1"/><path d="M925.34,404.15h34.07V521.57H925.34ZM949.75,299.3H934.92l-9.58-25.87h34.07Z" transform="translate(0.5 0.5)" fill="#1c75bc"/><path d="M197.33,187.09v8.5L128.89,306.26l68.44,78.88v8.5H160.85L98.93,322.29H56.15v71.35H22.68V187.09H56.15v86H98.93c20.15-23.31,42-62.72,61.92-86Z" transform="translate(0.5 0.5)" fill="#fff"/><path d="M337.76,235.73v31.79h-81a1.68,1.68,0,0,0-1.75,1.61V393.64H222V269.22c0-18.45,15.62-33.49,34.74-33.49Z" transform="translate(0.5 0.5)" fill="#fff"/><path d="M509.39,269.22V393.64H395.88c-19.12,0-34.72-15-34.72-33.49V307.24H476.42v-38a1.68,1.68,0,0,0-1.66-1.7H361.16V235.73H474.67C493.79,235.73,509.39,250.77,509.39,269.22Zm-33,70H394.13v20.88a1.68,1.68,0,0,0,1.66,1.7h80.63Z" transform="translate(0.5 0.5)" fill="#fff"/><path d="M643,449.46H553.68v-32H643a1.44,1.44,0,0,0,1.54-1.33V393.64H564c-19.13,0-34.74-15-34.74-33.49V269.22c0-18.45,15.61-33.49,34.74-33.49h79c19.13,0,34.48,15,34.48,33.49V416C677.51,434.41,662.16,449.46,643,449.46Zm0-87.61a1.65,1.65,0,0,0,1.54-1.7V269.22a1.65,1.65,0,0,0-1.54-1.7H564a1.69,1.69,0,0,0-1.76,1.61v91a1.69,1.69,0,0,0,1.67,1.7H643Z" transform="translate(0.5 0.5)" fill="#fff"/><path d="M845.87,275.29h-33v-6.07a1.68,1.68,0,0,0-1.66-1.7H732.38a1.69,1.69,0,0,0-1.76,1.61v36.64c0,1,.75,1.47,1.76,1.47h78.78c19.37,0,34.72,15.05,34.72,33.48v19.43c0,18.45-15.42,33.49-34.72,33.49H732.38c-19.13,0-34.73-15-34.73-33.49v-6.07h33v6.07a1.68,1.68,0,0,0,1.66,1.7h78.88a1.69,1.69,0,0,0,1.76-1.61V340.72c0-1-.76-1.45-1.76-1.45H732.38c-19.13,0-34.73-15-34.73-33.5V269.22c0-18.45,15.6-33.49,34.73-33.49h78.78c19.37,0,34.72,15,34.72,33.49Z" transform="translate(0.5 0.5)" fill="#fff"/><path d="M1016.5,269.22v70H901.23v20.88a1.69,1.69,0,0,0,1.67,1.7h113.6v31.79H903c-19.13,0-34.74-15-34.74-33.49V269.22c0-18.45,15.61-33.49,34.74-33.49h78.77C1000.89,235.73,1016.5,250.77,1016.5,269.22Zm-33,38v-38a1.7,1.7,0,0,0-1.69-1.7H903a1.69,1.69,0,0,0-1.76,1.61v38.11Z" transform="translate(0.5 0.5)" fill="#fff"/><path d="M1224.57,191.34l-37,31h-70.65V521.57h-67V222.39H979l-36.73-31Z" transform="translate(0.5 0.5)" fill="#1c75bc"/></svg>